<svg width="24" height="24" viewBox="0 0 24 24" fill="none" xmlns="http://www.w3.org/2000/svg">
<path d="M21.25 12C21.25 6.89137 17.1086 2.75 12 2.75C6.89137 2.75 2.75 6.89137 2.75 12C2.75 17.1086 6.89137 21.25 12 21.25C17.1086 21.25 21.25 17.1086 21.25 12Z" stroke="#1B1B1B" stroke-width="1.5"/>
<path d="M10.7712 10.1287L13.4967 9.24364C14.2736 8.99132 15.009 9.72663 14.7566 10.5036L13.8716 13.229C13.7727 13.5336 13.5339 13.7724 13.2293 13.8713L10.5039 14.7564C9.72688 15.0087 8.99156 14.2734 9.24389 13.4964L10.129 10.7709C10.2279 10.4664 10.4667 10.2276 10.7712 10.1287Z" stroke="#1B1B1B" stroke-width="1.5"/>
</svg>
